<mxfile host="app.diagrams.net" agent="Mozilla/5.0 (Windows NT 10.0; Win64; x64) AppleWebKit/537.36 (KHTML, like Gecko) Chrome/127.0.0.0 Safari/537.36" version="24.7.6">
  <diagram name="Page-1" id="KEArCdIHZ9SuvgmqVVNT">
    <mxGraphModel dx="989" dy="538" grid="1" gridSize="10" guides="1" tooltips="1" connect="1" arrows="1" fold="1" page="1" pageScale="1" pageWidth="827" pageHeight="1169" math="0" shadow="0">
      <root>
        <mxCell id="0" />
        <mxCell id="1" parent="0" />
        <mxCell id="dQaM9TAmy3td7B9WNORy-14" value="" style="edgeStyle=orthogonalEdgeStyle;rounded=0;orthogonalLoop=1;jettySize=auto;html=1;" edge="1" parent="1" source="dQaM9TAmy3td7B9WNORy-1" target="dQaM9TAmy3td7B9WNORy-13">
          <mxGeometry relative="1" as="geometry" />
        </mxCell>
        <mxCell id="dQaM9TAmy3td7B9WNORy-1" value="Orchaestrator" style="rounded=1;whiteSpace=wrap;html=1;absoluteArcSize=1;arcSize=14;strokeWidth=2;fillColor=#ffe6cc;strokeColor=#d79b00;" vertex="1" parent="1">
          <mxGeometry x="480" y="380" width="100" height="100" as="geometry" />
        </mxCell>
        <mxCell id="dQaM9TAmy3td7B9WNORy-8" value="" style="edgeStyle=orthogonalEdgeStyle;rounded=0;orthogonalLoop=1;jettySize=auto;html=1;" edge="1" parent="1" source="dQaM9TAmy3td7B9WNORy-2" target="dQaM9TAmy3td7B9WNORy-5">
          <mxGeometry relative="1" as="geometry" />
        </mxCell>
        <mxCell id="dQaM9TAmy3td7B9WNORy-2" value="" style="shape=actor;whiteSpace=wrap;html=1;" vertex="1" parent="1">
          <mxGeometry x="20" y="400" width="40" height="60" as="geometry" />
        </mxCell>
        <mxCell id="dQaM9TAmy3td7B9WNORy-45" value="" style="edgeStyle=orthogonalEdgeStyle;rounded=0;orthogonalLoop=1;jettySize=auto;html=1;" edge="1" parent="1" source="dQaM9TAmy3td7B9WNORy-3" target="dQaM9TAmy3td7B9WNORy-1">
          <mxGeometry relative="1" as="geometry" />
        </mxCell>
        <mxCell id="dQaM9TAmy3td7B9WNORy-3" value="Armor DB" style="shape=datastore;whiteSpace=wrap;html=1;fillColor=#e1d5e7;strokeColor=#9673a6;" vertex="1" parent="1">
          <mxGeometry x="320" y="400" width="60" height="60" as="geometry" />
        </mxCell>
        <mxCell id="dQaM9TAmy3td7B9WNORy-6" value="" style="edgeStyle=orthogonalEdgeStyle;rounded=0;orthogonalLoop=1;jettySize=auto;html=1;" edge="1" parent="1" source="dQaM9TAmy3td7B9WNORy-4" target="dQaM9TAmy3td7B9WNORy-3">
          <mxGeometry relative="1" as="geometry" />
        </mxCell>
        <mxCell id="dQaM9TAmy3td7B9WNORy-4" value="Armor WebService" style="html=1;whiteSpace=wrap;container=1;recursiveResize=0;collapsible=0;fillColor=#d5e8d4;strokeColor=#82b366;" vertex="1" parent="1">
          <mxGeometry x="90" y="395" width="190" height="70" as="geometry" />
        </mxCell>
        <mxCell id="dQaM9TAmy3td7B9WNORy-5" value="" style="triangle;html=1;whiteSpace=wrap;" vertex="1" parent="dQaM9TAmy3td7B9WNORy-4">
          <mxGeometry x="20" y="20" width="20" height="30" as="geometry" />
        </mxCell>
        <mxCell id="dQaM9TAmy3td7B9WNORy-11" value="Monitors for any restart of scan is added" style="text;html=1;align=center;verticalAlign=middle;whiteSpace=wrap;rounded=0;" vertex="1" parent="1">
          <mxGeometry x="390" y="350" width="80" height="70" as="geometry" />
        </mxCell>
        <mxCell id="dQaM9TAmy3td7B9WNORy-29" value="" style="edgeStyle=orthogonalEdgeStyle;rounded=0;orthogonalLoop=1;jettySize=auto;html=1;" edge="1" parent="1" source="dQaM9TAmy3td7B9WNORy-12" target="dQaM9TAmy3td7B9WNORy-28">
          <mxGeometry relative="1" as="geometry" />
        </mxCell>
        <mxCell id="dQaM9TAmy3td7B9WNORy-12" value="Tool service" style="shape=process;whiteSpace=wrap;html=1;backgroundOutline=1;fillColor=#dae8fc;strokeColor=#6c8ebf;" vertex="1" parent="1">
          <mxGeometry x="470" y="700" width="120" height="60" as="geometry" />
        </mxCell>
        <mxCell id="dQaM9TAmy3td7B9WNORy-16" value="" style="edgeStyle=orthogonalEdgeStyle;rounded=0;orthogonalLoop=1;jettySize=auto;html=1;" edge="1" parent="1" source="dQaM9TAmy3td7B9WNORy-13">
          <mxGeometry relative="1" as="geometry">
            <mxPoint x="690" y="588" as="targetPoint" />
          </mxGeometry>
        </mxCell>
        <mxCell id="dQaM9TAmy3td7B9WNORy-21" value="" style="edgeStyle=orthogonalEdgeStyle;rounded=0;orthogonalLoop=1;jettySize=auto;html=1;" edge="1" parent="1" source="dQaM9TAmy3td7B9WNORy-13" target="dQaM9TAmy3td7B9WNORy-12">
          <mxGeometry relative="1" as="geometry" />
        </mxCell>
        <mxCell id="dQaM9TAmy3td7B9WNORy-13" value="&lt;div&gt;&lt;br&gt;&lt;/div&gt;Restart&amp;nbsp;&lt;div&gt;Scan&lt;div&gt;&lt;br&gt;&lt;/div&gt;&lt;/div&gt;" style="rhombus;whiteSpace=wrap;html=1;" vertex="1" parent="1">
          <mxGeometry x="490" y="550" width="80" height="75" as="geometry" />
        </mxCell>
        <mxCell id="dQaM9TAmy3td7B9WNORy-18" value="" style="edgeStyle=orthogonalEdgeStyle;rounded=0;orthogonalLoop=1;jettySize=auto;html=1;" edge="1" parent="1">
          <mxGeometry relative="1" as="geometry">
            <mxPoint x="690" y="590" as="sourcePoint" />
            <mxPoint x="690" y="430" as="targetPoint" />
          </mxGeometry>
        </mxCell>
        <mxCell id="dQaM9TAmy3td7B9WNORy-19" value="" style="edgeStyle=orthogonalEdgeStyle;rounded=0;orthogonalLoop=1;jettySize=auto;html=1;" edge="1" parent="1" target="dQaM9TAmy3td7B9WNORy-1">
          <mxGeometry relative="1" as="geometry">
            <mxPoint x="690" y="430" as="sourcePoint" />
          </mxGeometry>
        </mxCell>
        <mxCell id="dQaM9TAmy3td7B9WNORy-20" value="No&lt;div&gt;&lt;br&gt;&lt;/div&gt;" style="text;html=1;align=center;verticalAlign=middle;whiteSpace=wrap;rounded=0;" vertex="1" parent="1">
          <mxGeometry x="570" y="555" width="60" height="30" as="geometry" />
        </mxCell>
        <mxCell id="dQaM9TAmy3td7B9WNORy-22" value="Yes" style="text;html=1;align=center;verticalAlign=middle;whiteSpace=wrap;rounded=0;" vertex="1" parent="1">
          <mxGeometry x="480" y="640" width="60" height="30" as="geometry" />
        </mxCell>
        <mxCell id="dQaM9TAmy3td7B9WNORy-24" value="Continue montoring the restart&amp;nbsp;" style="text;html=1;align=center;verticalAlign=middle;whiteSpace=wrap;rounded=0;" vertex="1" parent="1">
          <mxGeometry x="710" y="490" width="60" height="30" as="geometry" />
        </mxCell>
        <mxCell id="dQaM9TAmy3td7B9WNORy-25" value="Request for restart" style="text;html=1;align=center;verticalAlign=middle;whiteSpace=wrap;rounded=0;" vertex="1" parent="1">
          <mxGeometry x="560" y="655" width="60" height="30" as="geometry" />
        </mxCell>
        <mxCell id="dQaM9TAmy3td7B9WNORy-31" value="" style="edgeStyle=orthogonalEdgeStyle;rounded=0;orthogonalLoop=1;jettySize=auto;html=1;" edge="1" parent="1" source="dQaM9TAmy3td7B9WNORy-28" target="dQaM9TAmy3td7B9WNORy-30">
          <mxGeometry relative="1" as="geometry" />
        </mxCell>
        <mxCell id="dQaM9TAmy3td7B9WNORy-28" value="Scan&amp;nbsp;&lt;div&gt;Details&lt;div&gt;Exists&lt;/div&gt;&lt;/div&gt;" style="rhombus;whiteSpace=wrap;html=1;" vertex="1" parent="1">
          <mxGeometry x="334" y="690" width="80" height="80" as="geometry" />
        </mxCell>
        <mxCell id="dQaM9TAmy3td7B9WNORy-30" value="" style="shape=image;html=1;verticalLabelPosition=bottom;verticalAlign=top;imageAspect=1;aspect=fixed;image=img/clipart/Gear_128x128.png" vertex="1" parent="1">
          <mxGeometry x="348" y="820" width="52" height="61" as="geometry" />
        </mxCell>
        <mxCell id="dQaM9TAmy3td7B9WNORy-32" value="Yes" style="text;html=1;align=center;verticalAlign=middle;whiteSpace=wrap;rounded=0;" vertex="1" parent="1">
          <mxGeometry x="370" y="770" width="60" height="30" as="geometry" />
        </mxCell>
        <mxCell id="dQaM9TAmy3td7B9WNORy-33" value="Restart the scan in tool" style="text;html=1;align=center;verticalAlign=middle;whiteSpace=wrap;rounded=0;" vertex="1" parent="1">
          <mxGeometry x="344" y="880" width="66" height="40" as="geometry" />
        </mxCell>
        <mxCell id="dQaM9TAmy3td7B9WNORy-36" value="No" style="text;html=1;align=center;verticalAlign=middle;whiteSpace=wrap;rounded=0;" vertex="1" parent="1">
          <mxGeometry x="390" y="640" width="60" height="30" as="geometry" />
        </mxCell>
        <mxCell id="dQaM9TAmy3td7B9WNORy-38" value="" style="endArrow=classic;html=1;rounded=0;exitX=0.5;exitY=0;exitDx=0;exitDy=0;" edge="1" parent="1" source="dQaM9TAmy3td7B9WNORy-28">
          <mxGeometry width="50" height="50" relative="1" as="geometry">
            <mxPoint x="380" y="570" as="sourcePoint" />
            <mxPoint x="370" y="490" as="targetPoint" />
          </mxGeometry>
        </mxCell>
        <mxCell id="dQaM9TAmy3td7B9WNORy-39" value="Request for scan details to restart the scan" style="text;html=1;align=center;verticalAlign=middle;whiteSpace=wrap;rounded=0;" vertex="1" parent="1">
          <mxGeometry x="320" y="530" width="100" height="50" as="geometry" />
        </mxCell>
        <mxCell id="dQaM9TAmy3td7B9WNORy-42" value="" style="endArrow=classic;html=1;rounded=0;entryX=0;entryY=0.75;entryDx=0;entryDy=0;" edge="1" parent="1" target="dQaM9TAmy3td7B9WNORy-1">
          <mxGeometry width="50" height="50" relative="1" as="geometry">
            <mxPoint x="370" y="490" as="sourcePoint" />
            <mxPoint x="430" y="520" as="targetPoint" />
          </mxGeometry>
        </mxCell>
      </root>
    </mxGraphModel>
  </diagram>
</mxfile>
